[2026-03-03T20:25:28.603Z] Pipeline started.
[2026-03-03T20:25:29.424Z] Downloading YouTube: https://youtube.com/shorts/sbqu-Bw61Rs?si=Nn4xez_KJv-rjCSm
[2026-03-03T20:25:47.222Z] ElevenLabs TTS seg 0 [21m00Tcm4TlvDq8ikWAM]: "Həyat tərzini dəyişmək?"
[2026-03-03T20:25:48.622Z] Seg 0 done (27211 bytes) ✅
[2026-03-03T20:25:48.853Z] ElevenLabs TTS seg 1 [21m00Tcm4TlvDq8ikWAM]: "Sən çox bahalı paltarlar aldığın kimi görünmürsən."
[2026-03-03T20:25:50.107Z] Seg 1 done (47691 bytes) ✅
[2026-03-03T20:25:50.338Z] ElevenLabs TTS seg 2 [21m00Tcm4TlvDq8ikWAM]: "Yox, mən çox bahalı paltarlar almıram."
[2026-03-03T20:25:51.586Z] Seg 2 done (38078 bytes) ✅
[2026-03-03T20:25:51.851Z] ElevenLabs TTS seg 3 [21m00Tcm4TlvDq8ikWAM]: "Sən əşyalar alırsan? Sən... alırsan ki,"
[2026-03-03T20:25:53.127Z] Seg 3 done (56050 bytes) ✅
[2026-03-03T20:25:53.359Z] ElevenLabs TTS seg 4 [21m00Tcm4TlvDq8ikWAM]: "Yox, mənim kiçik, bir otaqlı mənzilim var, yerə ya"
[2026-03-03T20:25:54.650Z] Seg 4 done (64409 bytes) ✅
[2026-03-03T20:25:54.930Z] ElevenLabs TTS seg 5 [21m00Tcm4TlvDq8ikWAM]: "Orada yaşayıram."
[2026-03-03T20:25:55.948Z] Seg 5 done (20942 bytes) ✅
[2026-03-03T20:25:56.193Z] Running FFmpeg: C:\Users\fullm\Downloads\dubverse-saas\backend\node_modules\ffmpeg-static\ffmpeg.exe -i C:\Users\fullm\Downloads\dubverse-saas\tmp\uploads\8b5bfc5d-affc-43b6-a060-8acad94706b6\audio.mp3 -i C:\Users\fullm\Downloads\dubverse-saas\tmp\uploads\8b5bfc5d-affc-43b6-a060-8acad94706b6\segments\seg_0.mp3 -i C:\Users\fullm\Downloads\dubverse-saas\tmp\uploads\8b5bfc5d-affc-43b6-a060-8acad94706b6\segments\seg_1.mp3 -i C:\Users\fullm\Downloads\dubverse-saas\tmp\uploads\8b5bfc5d-affc-43b6-a060-8acad94706b6\segments\seg_2.mp3 -i C:\Users\fullm\Downloads\dubverse-saas\tmp\uploads\8b5bfc5d-affc-43b6-a060-8acad94706b6\segments\seg_3.mp3 -i C:\Users\fullm\Downloads\dubverse-saas\tmp\uploads\8b5bfc5d-affc-43b6-a060-8acad94706b6\segments\seg_4.mp3 -i C:\Users\fullm\Downloads\dubverse-saas\tmp\uploads\8b5bfc5d-affc-43b6-a060-8acad94706b6\segments\seg_5.mp3 -filter_complex [1:a]aformat=sample_rates=44100:channel_layouts=stereo,adelay=0|0[s0];[2:a]aformat=sample_rates=44100:channel_layouts=stereo,adelay=1200|1200[s1];[3:a]aformat=sample_rates=44100:channel_layouts=stereo,adelay=4000|4000[s2];[4:a]aformat=sample_rates=44100:channel_layouts=stereo,adelay=6200|6200[s3];[5:a]aformat=sample_rates=44100:channel_layouts=stereo,adelay=9000|9000[s4];[6:a]aformat=sample_rates=44100:channel_layouts=stereo,adelay=13700|13700[s5];[0:a]aformat=sample_rates=44100:channel_layouts=stereo,volume=0[bg];[bg][s0][s1][s2][s3][s4][s5]amix=inputs=7:duration=first:dropout_transition=2,volume=7[mixed];[mixed]loudnorm=I=-23:TP=-1.5:LRA=11[out] -map [out] -acodec libmp3lame -ar 44100 -b:a 192k -y C:\Users\fullm\Downloads\dubverse-saas\tmp\uploads\8b5bfc5d-affc-43b6-a060-8acad94706b6\dubbed_audio.mp3
[2026-03-03T20:25:56.425Z] FFmpeg Err: Input #0, mp3, from 'C:\Users\fullm\Downloads\dubverse-saas\tmp\uploads\8b5bfc5d-affc-43b6-a060-8acad94706b6\audio.mp3':
  Metadata:
    major_brand     : mp42
    minor_version   : 0
    compatible_brands: isommp42
    encoder         : Lavf60.16.100
  Duration: 00:00:15.33, start: 0.025057, bitrate: 128 kb/s
  Stream #0:0: Audio: mp3, 44100 Hz, stereo, fltp, 128 kb/s
    Metadata:
      encoder         : Lavc60.31

[2026-03-03T20:25:56.429Z] FFmpeg Err: Input #1, mp3, from 'C:\Users\fullm\Downloads\dubverse-saas\tmp\uploads\8b5bfc5d-affc-43b6-a060-8acad94706b6\segments\seg_0.mp3':
  Metadata:
    encoder         : Lavf60.16.100
  Duration: 00:00:01.67, start: 0.025057, bitrate: 65 kb/s
  Stream #1:0: Audio: mp3, 44100 Hz, mono, fltp, 64 kb/s
Input #2, mp3, from 'C:\Users\fullm\Downloads\dubverse-saas\tmp\uploads\8b5bfc5d-affc-43b6-a060-8acad94706b6\segments\seg_1.mp3':
  Metadata:
    encoder         : Lavf60.16.100
  Duration: 00:00:02.95, start: 0.025057, bitrate: 64 kb/s
  Stream #2:0: Audio: mp3, 44100 Hz, mono, fltp, 64 kb/s
Input #3, mp3, from 'C:\Users\fullm\Downloads\dubverse-saas\tmp\uploads\8b5bfc5d-affc-43b6-a060-8acad94706b6\segments\seg_2.mp3':
  Metadata:
    encoder         : Lavf60.16.100
  Duration: 00:00:02.35, start: 0.025057, bitrate: 64 kb/s
  Stream #3:0: Audio: mp3, 44100 Hz, mono, fltp, 64 kb/s
Input #4, mp3, from 'C:\Users\fullm\Downloads\dubverse-saas\tmp\uploads\8b5bfc5d-affc-43b6-a060-8acad94706b6\segments\seg_3.mp3':
  Metadata:
    encoder         : Lavf60.16.100
  Duration: 00:00:03.47, start: 0.025057, bitrate: 64 kb/s
  Stream #4:0: Audio: mp3, 44100 Hz, mono, fltp, 64 kb/s

[2026-03-03T20:25:56.433Z] FFmpeg Err: Input #5, mp3, from 'C:\Users\fullm\Downloads\dubverse-saas\tmp\uploads\8b5bfc5d-affc-43b6-a060-8acad94706b6\segments\seg_4.mp3':
  Metadata:
    encoder         : Lavf60.16.100
  Duration: 00:00:04.00, start: 0.025057, bitrate: 64 kb/s
  Stream #5:0: Audio: mp3, 44100 Hz, mono, fltp, 64 kb/s
Input #6, mp3, from 'C:\Users\fullm\Downloads\dubverse-saas\tmp\uploads\8b5bfc5d-affc-43b6-a060-8acad94706b6\segments\seg_5.mp3':
  Metadata:
    encoder         : Lavf60.16.100
  Duration: 00:00:01.28, start: 0.025057, bitrate: 65 kb/s
  Stream #6:0: Audio: mp3, 44100 Hz, mono, fltp, 64 kb/s

[2026-03-03T20:25:56.436Z] FFmpeg Err: Stream mapping:
  Stream #0:0 (mp3float) -> aformat:default
  Stream #1:0 (mp3float) -> aformat:default
  Stream #2:0 (mp3float) -> aformat:default
  Stream #3:0 (mp3float) -> aformat:default
  Stream #4:0 (mp3float) -> aformat:default
  Stream #5:0 (mp3float) -> aformat:default
  Stream #6:0 (mp3float) -> aformat:default
  loudnorm:default -> Stream #0:0 (libmp3lame)

[2026-03-03T20:25:56.540Z] FFmpeg Err: Output #0, mp3, to 'C:\Users\fullm\Downloads\dubverse-saas\tmp\uploads\8b5bfc5d-affc-43b6-a060-8acad94706b6\dubbed_audio.mp3':
  Metadata:
    major_brand     : mp42
    minor_version   : 0
    compatible_brands: isommp42
    TSSE            : Lavf60.16.100
  Stream #0:0: Audio: mp3, 44100 Hz, stereo, fltp, 192 kb/s
    Metadata:
      encoder         : Lavc60.31.102 libmp3lame

[2026-03-03T20:25:56.544Z] FFmpeg Err: size=       0kB time=-00:00:00.02 bitrate=  -0.0kbits/s speed=N/A    
[2026-03-03T20:25:57.008Z] FFmpeg Err: size=     153kB time=00:00:06.47 bitrate= 193.7kbits/s speed=11.3x    
[2026-03-03T20:25:57.519Z] FFmpeg Err: size=     256kB time=00:00:15.27 bitrate= 137.3kbits/s speed=14.1x    
[2026-03-03T20:25:57.522Z] FFmpeg Err: [out#0/mp3 @ 00000282d5d7f340] video:0kB audio:359kB subtitle:0kB other streams:0kB global headers:0kB muxing overhead: 0.207601%
size=     360kB time=00:00:15.38 bitrate= 191.8kbits/s speed=14.1x    

[2026-03-03T20:26:00.862Z] Running FFmpeg: C:\Users\fullm\Downloads\dubverse-saas\backend\node_modules\ffmpeg-static\ffmpeg.exe -i C:\Users\fullm\Downloads\dubverse-saas\tmp\uploads\8b5bfc5d-affc-43b6-a060-8acad94706b6\video.mp4 -i C:\Users\fullm\Downloads\dubverse-saas\tmp\uploads\8b5bfc5d-affc-43b6-a060-8acad94706b6\dubbed_audio.mp3 -map 0:v:0 -map 1:a:0 -c:v copy -c:a aac -b:a 192k -shortest -y C:\Users\fullm\Downloads\dubverse-saas\tmp\uploads\8b5bfc5d-affc-43b6-a060-8acad94706b6\final_dubbed.mp4
[2026-03-03T20:26:00.953Z] FFmpeg Err: Input #0, mov,mp4,m4a,3gp,3g2,mj2, from 'C:\Users\fullm\Downloads\dubverse-saas\tmp\uploads\8b5bfc5d-affc-43b6-a060-8acad94706b6\video.mp4':
  Metadata:
    major_brand     : mp42
    minor_version   : 0
    compatible_brands: isommp42
    creation_time   : 2022-10-02T15:04:51.000000Z
  Duration: 00:00:15.30, start: 0.000000, bitrate: 410 kb/s
  Stream #0:0[0x1]
[2026-03-03T20:26:00.957Z] FFmpeg Err: (und): Video: h264 (Main) (avc1 / 0x31637661), yuv420p(tv, bt709, progressive), 360x640 [SAR 1:1 DAR 9:16], 278 kb/s, 30 fps, 30 tbr, 15360 tbn (default)
    Metadata:
      creation_time   : 2022-10-02T15:04:51.000000Z
      handler_name    : ISO Media file produced by Google Inc. Created on: 10/02/2022.
      vendor_id       : [0][0][0][0]
  Stream #0:1[0x2](eng): Audio: aac (LC) (mp4a / 0x6134706D), 44100 Hz, stereo, fltp, 127 kb/s (default)
    Metadata:
      creation_time   : 2022-10-02T15:04:51.000000Z
      handler_name    : ISO Media file produced by Google Inc. Created on: 10/02/2022.
      vendor_id       : [0][0][0][0]
Input #1, mp3, from 'C:\Users\fullm\Downloads\dubverse-saas\tmp\uploads\8b5bfc5d-affc-43b6-a060-8acad94706b6\dubbed_audio.mp3':
  Metadata:
    major_brand     : mp42
    minor_version   : 0
    compatible_brands: isommp42
    encoder         : Lavf60.16.100
  Duration: 00:00:15.33, start: 0.025057, bitrate: 192 kb/s
  Stream #1:0: Audio: mp3, 44100 Hz, stereo, fltp, 192 kb/s
    Metadata:
      encoder         : Lavc60.31
Stream mapping:
  Stream #0:0 -> #0:0 (copy)
  Stream #1:0 -> #0:1 (mp3 (mp3float) -> aac (native))

[2026-03-03T20:26:00.964Z] FFmpeg Err: Output #0, mp4, to 'C:\Users\fullm\Downloads\dubverse-saas\tmp\uploads\8b5bfc5d-affc-43b6-a060-8acad94706b6\final_dubbed.mp4':
  Metadata:
    major_brand     : mp42
    minor_version   : 0
    compatible_brands: isommp42
    encoder         : Lavf60.16.100
  Stream #0:0(und): Video: h264 (Main) (avc1 / 0x31637661), yuv420p(tv, bt709, progressive), 360x640 [SAR 1:1 DAR 9:16], q=2-31, 278 kb/s, 
[2026-03-03T20:26:00.967Z] FFmpeg Err: 30 fps, 30 tbr, 15360 tbn (default)
    Metadata:
      creation_time   : 2022-10-02T15:04:51.000000Z
      handler_name    : ISO Media file produced by Google Inc. Created on: 10/02/2022.
      vendor_id       : [0][0][0][0]
  Stream #0:1: Audio: aac (LC) (mp4a / 0x6134706D), 44100 Hz, stereo, fltp, 192 kb/s
    Metadata:
      encoder         : Lavc60.31.102 aac
size=       0kB time=N/A bitrate=N/A speed=N/A    
[2026-03-03T20:26:01.456Z] FFmpeg Err: size=     256kB time=00:00:07.76 bitrate= 270.1kbits/s speed=15.5x    
[2026-03-03T20:26:01.948Z] FFmpeg Err: [out#0/mp4 @ 000001f91f87be00] video:520kB audio:339kB subtitle:0kB other streams:0kB global headers:0kB muxing overhead: 1.811032%
size=     875kB time=00:00:15.27 bitrate= 469.3kbits/s speed=15.4x    

[2026-03-03T20:26:01.950Z] FFmpeg Err: [aac @ 000001f91f6ee940] Qavg: 6763.884

[2026-03-03T20:26:04.118Z] ✅ Pipeline finished successfully!
